<svg xmlns="http://www.w3.org/2000/svg" viewBox="11822 820 312.36 203.8">
  <defs>
    <style>
      .cls-1 {
        fill: #fcaf17;
      }

      .cls-2 {
        fill: #2e3192;
      }

      .cls-3 {
        fill: #fff;
      }
    </style>
  </defs>
  <g id="Group_6409" data-name="Group 6409" transform="translate(11822 820)">
    <path id="Path_3016" data-name="Path 3016" class="cls-1" d="M77.2,14.486v-2L95.1,0V2.331L79.281,13.32v.167L95.1,24.476v2.331Z" transform="translate(-12.93)"/>
    <path id="Path_3017" data-name="Path 3017" class="cls-1" d="M7.381,94l5.661-8.408L4.8,82.092l.583-1.415,8.408,3,.25-9.574h1.582l.25,9.574,8.408-3,.5,1.5-8.159,3.413L22.283,94l-1.415,1L14.79,86.754,8.713,95Z" transform="translate(-0.804 -12.411)"/>
    <path id="Path_3018" data-name="Path 3018" class="cls-2" d="M39.5,68.2H61.229v7.076H47.908v5H59.231v7.076H47.908v5.661H61.645v7.076H39.5Z" transform="translate(-6.616 -11.422)"/>
    <path id="Path_3019" data-name="Path 3019" class="cls-2" d="M72.6,98.262l3.5-5.245a19.148,19.148,0,0,0,9.657,2.747c2.165,0,3.08-.583,3.08-1.5,0-1.166-1.249-1.415-5.411-2.248-6.743-1.5-9.241-4-9.241-7.826,0-4.829,4.579-7.992,11.655-7.992a20.885,20.885,0,0,1,10.906,3.413l-3.746,5A16.177,16.177,0,0,0,85,82.361c-1.582,0-2.581.5-2.581,1.415,0,1.082,1.249,1.166,5.078,2.081,7.326,1.665,9.491,3.913,9.491,7.992,0,4.579-4.412,8.159-12.571,8.159A23.348,23.348,0,0,1,72.6,98.262Z" transform="translate(-12.159 -12.762)"/>
    <path id="Path_3020" data-name="Path 3020" class="cls-2" d="M113.711,89.662V82.086H107.8V75.759l6.327-.333,1.082-7.326H122.2v7.409h9.74v6.577h-9.824V89.5c0,3.5,1.582,4.579,4.745,4.579a14.94,14.94,0,0,0,4.5-.749l1.5,6.077a30.043,30.043,0,0,1-8.159,1.249C116.625,100.651,113.711,96.239,113.711,89.662Z" transform="translate(-18.055 -11.406)"/>
    <path id="Path_3021" data-name="Path 3021" class="cls-2" d="M144,88.886V73.734h8.408V87.8c0,2.747.583,3.913,2.831,3.913,1.415,0,2.414-.416,3.663-2.165V73.734h8.408V98.293H160.4l-.583-3.247h-.167a10.152,10.152,0,0,1-7.992,3.83C146.248,98.876,144,94.963,144,88.886Zm7.659-22.145L159.4,57.5l5.661,5.578-9.324,7.742Z" transform="translate(-24.118 -9.63)"/>
    <path id="Path_3022" data-name="Path 3022" class="cls-2" d="M178.6,87.378c0-8.075,5.078-12.9,10.24-12.9a7.508,7.508,0,0,1,5.744,2.414h.167l-.416-3.5V65.4h8.408V99.616h-6.91l-.583-2.248h-.166a9.785,9.785,0,0,1-6.327,2.831C182.6,100.2,178.6,95.287,178.6,87.378Zm15.818,4.163V82.55a4.488,4.488,0,0,0-3.247-1.166c-2.081,0-3.913,1.582-3.913,5.911,0,4.412,1.415,6.077,3.83,6.077A3.683,3.683,0,0,0,194.418,91.541Z" transform="translate(-29.913 -10.953)"/>
    <path id="Path_3023" data-name="Path 3023" class="cls-2" d="M225.224,80.914H215.9V74.337h17.816V98.9h-8.408V80.914Zm-1.5-14.819c0-2.914,2.248-5,5.411-5s5.411,2.081,5.411,5-2.248,4.912-5.411,4.912S223.726,69.009,223.726,66.1Z" transform="translate(-36.16 -10.233)"/>
    <path id="Path_3024" data-name="Path 3024" class="cls-2" d="M249.3,89.2a12.657,12.657,0,1,1,25.309,0,12.657,12.657,0,1,1-25.309,0Zm16.734,0c0-3.746-1.166-6.077-4-6.077s-4,2.331-4,6.077,1.166,6.077,4,6.077S266.034,92.95,266.034,89.2Z" transform="translate(-41.754 -12.779)"/>
    <path id="Path_3025" data-name="Path 3025" class="cls-1" d="M295.5,85.628A26.476,26.476,0,0,1,306.905,63.4l1.249,1.415c-7.076,5.411-10.406,12.238-10.406,20.813s3.33,15.4,10.406,20.813l-1.249,1.415A26.368,26.368,0,0,1,295.5,85.628Z" transform="translate(-49.491 -10.618)"/>
    <path id="Path_3026" data-name="Path 3026" class="cls-1" d="M324.7,106.441c7.076-5.411,10.406-12.238,10.406-20.813s-3.33-15.4-10.406-20.813l1.249-1.415a26.368,26.368,0,0,1,11.405,22.228,26.476,26.476,0,0,1-11.405,22.228Z" transform="translate(-54.382 -10.618)"/>
    <path id="Path_3027" data-name="Path 3027" class="cls-1" d="M365.1,110.317c4.079-2.081,6.077-4.829,6.077-9.491l-1.332-3.746,2.664,3.247a2.827,2.827,0,0,1-2.414,1.166,2.693,2.693,0,0,1-3-2.914,2.769,2.769,0,0,1,3-2.914c2.248,0,3.413,2,3.413,5,0,5.495-3.08,9.241-7.659,11.156Zm1.748-29.971a3.036,3.036,0,0,1,2.914-3.247,2.987,2.987,0,0,1,2.914,3.247,3.036,3.036,0,0,1-2.914,3.247A2.987,2.987,0,0,1,366.848,80.347Z" transform="translate(-61.148 -12.913)"/>
    <path id="Path_3028" data-name="Path 3028" class="cls-3" d="M0,138.9H7.659l3.83,14.9c.916,3.5,1.582,6.743,2.581,10.24h.167c1-3.5,1.665-6.743,2.581-10.24l3.746-14.9h7.409l-9.657,31.969H9.657Z" transform="translate(0 -23.263)"/>
    <path id="Path_3029" data-name="Path 3029" class="cls-3" d="M38.1,165.532c0-5.495,4.5-8.242,15.984-8.908-.25-2.165-1.915-3.5-5.162-3.5-2.331,0-4.662.916-7.409,2.248l-2.581-4.745a23.358,23.358,0,0,1,11.405-3.33c6.827,0,10.989,3.58,10.989,10.989v13.9H55.5l-.5-2.747h-.167a15.086,15.086,0,0,1-8.658,3.33C41.18,172.858,38.1,169.611,38.1,165.532Zm16.068-.583v-4c-7.16.333-9.074,1.915-9.074,4,0,1.582,1.332,2.331,3.33,2.331A9.47,9.47,0,0,0,54.168,164.949Z" transform="translate(-6.381 -24.67)"/>
    <path id="Path_3030" data-name="Path 3030" class="cls-3" d="M84.324,151.115H74.5v-5.661H91.567v24.393H84.324Zm-1.5-13.82c0-2.664,2-4.5,4.829-4.5a4.512,4.512,0,0,1,4.829,4.5c0,2.664-2,4.412-4.829,4.412S82.825,139.876,82.825,137.3Z" transform="translate(-12.478 -22.242)"/>
    <path id="Path_3031" data-name="Path 3031" class="cls-1" d="M119.5,173.447a3.036,3.036,0,0,1,2.914-3.247,3.266,3.266,0,1,1-2.914,3.247Z" transform="translate(-20.014 -28.506)"/>
    <path id="Path_3032" data-name="Path 3032" class="cls-3" d="M145,147.883h5.911l.5,3.247h.166a11.768,11.768,0,0,1,8.408-3.83c5.495,0,7.909,3.746,7.909,9.907v15.069h-7.243V158.123c0-3.247-.916-4.662-3.58-4.662-1.915,0-3.247.916-4.912,2.5v16.234H145Z" transform="translate(-24.285 -24.67)"/>
    <path id="Path_3033" data-name="Path 3033" class="cls-3" d="M179.7,165.532c0-5.495,4.5-8.242,15.984-8.908-.25-2.165-1.915-3.5-5.162-3.5-2.331,0-4.662.916-7.409,2.248l-2.581-4.745a23.358,23.358,0,0,1,11.405-3.33c6.827,0,10.989,3.58,10.989,10.989v13.9h-5.911l-.5-2.747h-.167a15.086,15.086,0,0,1-8.658,3.33C182.78,172.858,179.7,169.611,179.7,165.532Zm15.984-.583v-4c-7.16.333-9.074,1.915-9.074,4,0,1.582,1.332,2.331,3.33,2.331A9.086,9.086,0,0,0,195.684,164.949Z" transform="translate(-30.097 -24.67)"/>
    <path id="Path_3034" data-name="Path 3034" class="cls-1" d="M225.6,173.447a3.036,3.036,0,0,1,2.914-3.247,3.266,3.266,0,1,1-2.914,3.247Z" transform="translate(-37.784 -28.506)"/>
    <path id="Path_3035" data-name="Path 3035" class="cls-3" d="M247.1,138.8h7.493l.916,17.067c.083,2.747.167,5.162.167,7.992h.167c.416-2.914,1-5.328,1.582-7.992l2.165-8.908h4.662l2,8.908c.5,2.581,1.082,5.078,1.582,7.992H268c.083-2.914.083-5.328.167-7.992l.916-17.067h7.076l-4,32.052H264.5l-1.915-9.907a39.414,39.414,0,0,1-.833-6.077h-.167c-.167,1.915-.5,4.079-.833,6.077l-1.832,9.907h-7.576Z" transform="translate(-41.385 -23.247)"/>
    <path id="Path_3036" data-name="Path 3036" class="cls-3" d="M285.5,160.038A12.4,12.4,0,0,1,298.154,147.3c7.493,0,11.489,5.078,11.489,11.655a14.305,14.305,0,0,1-.333,3.247H290.828v-4.829H304.4l-1.166,1.415c0-3.913-1.665-5.994-4.912-5.994-3.58,0-5.911,2.414-5.911,7.243,0,5.078,2.747,7.243,7.493,7.243a13.237,13.237,0,0,0,6.244-1.665l2.414,4.329a18.907,18.907,0,0,1-9.657,2.831C291.411,172.858,285.5,168.2,285.5,160.038Z" transform="translate(-47.817 -24.67)"/>
    <path id="Path_3037" data-name="Path 3037" class="cls-3" d="M328.31,167.719h-.167l-.583,2.664H321.9V136h7.243v8.408l-.25,3.83h.167a9.754,9.754,0,0,1,6.66-2.747c6.077,0,9.824,4.829,9.824,12.321,0,8.408-5.078,13.237-10.573,13.237A9.693,9.693,0,0,1,328.31,167.719Zm9.824-9.824c0-4.329-1.415-6.577-4.5-6.577a6.025,6.025,0,0,0-4.5,2.248v9.907a6.4,6.4,0,0,0,4.163,1.582C335.97,165.055,338.134,162.89,338.134,157.9Z" transform="translate(-53.913 -22.778)"/>
    <path id="Path_3038" data-name="Path 3038" class="cls-1" d="M367.2,151.147a3.036,3.036,0,0,1,2.914-3.247,2.987,2.987,0,0,1,2.914,3.247,3.036,3.036,0,0,1-2.914,3.247A2.987,2.987,0,0,1,367.2,151.147Zm0,18.565a3.036,3.036,0,0,1,2.914-3.247,3.266,3.266,0,1,1-2.914,3.247Z" transform="translate(-61.5 -24.771)"/>
    <path id="Path_3039" data-name="Path 3039" class="cls-1" d="M264.5,236.876l15.818-10.989v-.167L264.5,214.731V212.4l17.9,12.488v2l-17.9,12.488Z" transform="translate(-44.299 -35.574)"/>
  </g>
</svg>
